<svg width="105" height="24" viewBox="0 0 105 24" fill="none" xmlns="http://www.w3.org/2000/svg">
<path d="M12.3937 18.0018C15.0878 17.6602 17.2642 15.4839 17.6079 12.7876C17.7279 11.8673 17.6349 10.9318 17.3361 10.0532C17.0372 9.17454 16.5405 8.37631 15.8843 7.72008C15.228 7.06384 14.4298 6.56713 13.5512 6.26828C12.6726 5.96943 11.737 5.87643 10.8168 5.99644C8.12049 6.34019 5.94414 8.51654 5.60254 11.2107C5.48252 12.1309 5.57553 13.0665 5.87438 13.9451C6.17323 14.8237 6.66993 15.6219 7.32617 16.2782C7.98241 16.9344 8.78064 17.4311 9.65926 17.73C10.5379 18.0288 11.4734 18.1218 12.3937 18.0018ZM12.7611 0.711328C15.3549 0.984381 17.7763 2.1396 19.6205 3.98382C21.4648 5.82804 22.62 8.24948 22.893 10.8433C23.6041 18.019 17.6229 24.0002 10.4451 23.2891C7.85167 23.0156 5.43073 21.8601 3.58694 20.016C1.74315 18.1718 0.588243 15.7506 0.315278 13.1571C-0.395849 5.9814 5.58535 0.00020051 12.7611 0.711328ZM28.9816 1.16035H45.5911C46.2227 1.16035 46.5793 1.88222 46.1991 2.38495L34.7072 17.5463H43.7112C45.3526 17.5463 46.6438 19.0395 46.3044 20.7411C46.0551 21.9893 44.8842 22.8401 43.6124 22.8401H25.5742C24.9491 22.8401 24.5946 22.1246 24.9705 21.6283L36.471 6.45406H29.0805C27.8086 6.45406 26.6377 5.60113 26.3885 4.35505C26.0469 2.6535 27.3402 1.16035 28.9816 1.16035ZM101.063 1.2205C102.778 0.859569 104.286 2.15721 104.286 3.8072V22.0752C104.286 22.7133 103.549 23.0678 103.051 22.6725L88.7227 11.3052V20.1975C88.7227 21.8475 87.2146 23.1451 85.5001 22.7842C84.2712 22.5264 83.429 21.3813 83.429 20.1266V1.92304C83.429 1.28496 84.166 0.930467 84.6644 1.32578L98.9943 12.6931V3.8781C98.9943 2.62342 99.8387 1.48046 101.065 1.2205H101.063ZM63.756 0.65332C72.528 0.65332 79.6392 5.73219 79.6392 11.997C79.6392 18.2618 72.528 23.3406 63.756 23.3406C54.984 23.3406 47.8727 18.2618 47.8727 11.997C47.8727 5.73219 54.984 0.65332 63.756 0.65332ZM63.756 5.94703C57.6953 5.94703 53.1664 9.14173 53.1664 11.997C53.1664 14.8522 57.6953 18.0469 63.756 18.0469C69.8167 18.0469 74.3455 14.8544 74.3455 11.997C74.3455 9.13958 69.8167 5.94703 63.756 5.94703Z" fill="white"/>
</svg>
